<svg xmlns="http://www.w3.org/2000/svg" width="400" height="340"><linearGradient id="grad1" x1="0%" y1="0%" x2="100%" y2="0%"><stop offset="0%" style="stop-color:#ff9500;stop-opacity:1" /><stop offset="100%" style="stop-color:#e73f2a;stop-opacity:1" /></linearGradient><path fill="url(#grad1)" d="M282.6865758900266,280.9912790208607C267.33200160685374,300.19800573116146,251.46076768985432,329.77147039983276,230.31998478071978,335.24036026180465C209.17920187158524,340.70925012377654,169.22712369011757,329.3721589886775,155.84187843521926,313.8046181926919C142.45663318032095,298.23707739670635,157.1760473402106,263.3633116116726,150.00851325132987,241.83511548589127C142.84097916244914,220.30691936010993,110.1876919048883,201.00450645681434,112.83667390193492,184.63544143800385C115.48565589898153,168.26637641919336,147.08819668148573,152.5872103859277,165.90240523360956,143.6207253730284C184.7166137857334,134.65424036012908,204.39055687485947,129.83874964518049,225.72192521467787,130.83653136060798C247.05329355449626,131.83431307603547,277.7696977283401,134.74683755902808,293.8906152725199,149.6074156655934C310.0115328166997,164.46799377215874,324.31477037683885,198.1026894407888,322.44743047975663,220C320.5800905826744,241.8973105592112,298.0411501731994,261.78455231055995,282.6865758900266,280.9912790208607" stroke="none" stroke-width="3"/></svg>