<svg xmlns="http://www.w3.org/2000/svg" width="400" height="340"><linearGradient id="grad1" x1="0%" y1="0%" x2="100%" y2="0%"><stop offset="0%" style="stop-color:#ff9500;stop-opacity:1" /><stop offset="100%" style="stop-color:#e73f2a;stop-opacity:1" /></linearGradient><path fill="url(#grad1)" d="M296.2855801214906,292.4021984558604C278.30361166113954,306.2004658191568,249.33661480590024,296.9166718667712,224.59804093906928,302.78960417977856C199.85946707223832,308.66253649278593,168.48982100269936,334.8128269909648,147.85413692050477,327.63979233390467C127.21845283831018,320.4667576768445,105.76515055011657,283.2742493481294,100.78393644590177,259.75139623741757C95.80272234168697,236.22854312670574,106.7404013730157,205.2110848363356,117.96685229521597,186.50267366963377C129.19330321741623,167.79426250293193,149.22723602600516,162.2016531779179,168.1426419791034,147.5009292372065C187.05804793220162,132.80020529649508,214.98835451684732,94.18215684111111,231.45928801380532,98.29833002536536C247.93022151076332,102.41450320961961,250.12981567962288,151.91435668029288,266.9682429608513,172.197968342732C283.8066702420797,192.4815800051711,327.6036288410693,199.96596164781192,332.48985170117584,220C337.3760745612824,240.03403835218808,314.2675485818417,278.603931092564,296.2855801214906,292.4021984558604" stroke="none" stroke-width="3"/></svg>